<svg width="16" height="19" viewBox="0 0 16 19" fill="none" xmlns="http://www.w3.org/2000/svg">
<path d="M13.9998 18.4798L1.99981 18.4798C1.33706 18.4798 0.799805 17.9425 0.799805 17.2798C0.799805 15.2949 2.03125 13.5182 3.8899 12.8216L4.25892 12.6833C6.67092 11.7793 9.32869 11.7793 11.7407 12.6833L12.1097 12.8216C13.9684 13.5182 15.1998 15.2949 15.1998 17.2798C15.1998 17.9425 14.6625 18.4798 13.9998 18.4798Z" fill="#FFD06B" stroke="#FFD06B" stroke-linecap="square" stroke-linejoin="round"/>
<path d="M5.60499 7.5254C6.90198 8.90886 9.09802 8.90886 10.395 7.5254C11.5789 6.2626 11.5789 4.29756 10.395 3.03476C9.09802 1.65129 6.90198 1.6513 5.60499 3.03476C4.42111 4.29756 4.42111 6.2626 5.60499 7.5254Z" fill="#FFD06B" stroke="#FFD06B" stroke-width="4" stroke-linecap="round" stroke-linejoin="round"/>
</svg>
