<svg width="24" height="25" viewBox="0 0 24 25" fill="none" xmlns="http://www.w3.org/2000/svg">
<path fill-rule="evenodd" clip-rule="evenodd" d="M12 6.16211L18 10.9621H17C17.5523 10.9621 18 11.4098 18 11.9621V18.3621C18 18.9144 17.5523 19.3621 17 19.3621H7C6.44772 19.3621 6 18.9144 6 18.3621L6 11.9621C6 11.4098 6.44772 10.9621 7 10.9621H6L12 6.16211ZM13.8 15.7621L13.8 12.1621H10.2L10.2 15.7621L13.8 15.7621Z" fill="#FFD06B"/>
<path d="M20.2495 12.7621L19.3495 12.0421L11.9995 6.16211L4.64951 12.0421L3.74951 12.7621" stroke="#FFD06B" stroke-width="3" stroke-linecap="round" stroke-linejoin="round"/>
<path fill-rule="evenodd" clip-rule="evenodd" d="M16.8746 10.0619H18.5996V6.46191L12.5996 6.46191V6.64191L16.8746 10.0619Z" fill="#FFD06B"/>
<path d="M18.5996 10.0619V11.0619C19.1519 11.0619 19.5996 10.6142 19.5996 10.0619L18.5996 10.0619ZM16.8746 10.0619L16.2499 10.8428C16.4272 10.9846 16.6475 11.0619 16.8746 11.0619V10.0619ZM18.5996 6.46191H19.5996C19.5996 5.90963 19.1519 5.46191 18.5996 5.46191V6.46191ZM12.5996 6.46191V5.46191C12.0473 5.46191 11.5996 5.90963 11.5996 6.46191H12.5996ZM12.5996 6.64191H11.5996C11.5996 6.9457 11.7377 7.23301 11.9749 7.42278L12.5996 6.64191ZM18.5996 9.06191H16.8746V11.0619H18.5996V9.06191ZM17.5996 6.46191V10.0619L19.5996 10.0619V6.46191H17.5996ZM12.5996 7.46191L18.5996 7.46191V5.46191L12.5996 5.46191V7.46191ZM13.5996 6.64191V6.46191H11.5996V6.64191H13.5996ZM11.9749 7.42278L16.2499 10.8428L17.4993 9.28105L13.2243 5.86105L11.9749 7.42278Z" fill="#FFD06B"/>
</svg>
