<svg width="18" height="17" viewBox="0 0 18 17" fill="none" xmlns="http://www.w3.org/2000/svg">
<path d="M6.68562 6.28688C6.5658 6.4067 6.5658 6.60097 6.68562 6.72079C6.80544 6.84061 6.99971 6.84061 7.11952 6.72079C7.23935 6.60097 7.23935 6.4067 7.11953 6.28688C6.99971 6.16706 6.80544 6.16706 6.68562 6.28688Z" fill="#FFD06B"/>
<path d="M10.8704 10.9056C10.7506 10.7858 10.7506 10.5915 10.8704 10.4717C10.9902 10.3518 11.1845 10.3518 11.3043 10.4717C11.4241 10.5915 11.4241 10.7858 11.3043 10.9056C11.1845 11.0254 10.9902 11.0254 10.8704 10.9056Z" fill="#FFD06B"/>
<path fill-rule="evenodd" clip-rule="evenodd" d="M14.7275 2.57361C13.8741 1.72024 12.5916 1.5575 11.5745 2.08552C11.2287 0.992985 10.2067 0.201172 8.9999 0.201172C7.79306 0.201172 6.77109 0.992985 6.42529 2.08552C5.40824 1.5575 4.1257 1.72024 3.27234 2.57361C2.41897 3.42697 2.25623 4.70951 2.78425 5.72656C1.69172 6.07236 0.899902 7.09433 0.899902 8.30117C0.899902 9.50802 1.69172 10.53 2.78425 10.8758C2.25623 11.8928 2.41897 13.1754 3.27234 14.0287C4.1257 14.8821 5.40824 15.0448 6.42529 14.5168C6.77109 15.6094 7.79306 16.4012 8.9999 16.4012C10.2067 16.4012 11.2287 15.6094 11.5745 14.5168C12.5916 15.0448 13.8741 14.8821 14.7275 14.0287C15.5808 13.1754 15.7436 11.8928 15.2156 10.8758C16.3081 10.53 17.0999 9.50802 17.0999 8.30117C17.0999 7.09433 16.3081 6.07236 15.2156 5.72656C15.7436 4.70951 15.5808 3.42697 14.7275 2.57361ZM5.10186 11.2792C4.80897 11.5721 4.80897 12.047 5.10186 12.3399C5.39475 12.6328 5.86963 12.6328 6.16252 12.3399L12.7386 5.76378C13.0315 5.47089 13.0315 4.99602 12.7386 4.70312C12.4457 4.41023 11.9708 4.41023 11.678 4.70312L5.10186 11.2792ZM5.62496 7.78145C4.91935 7.07584 4.91935 5.93183 5.62496 5.22622C6.33056 4.52062 7.47458 4.52062 8.18019 5.22622C8.88579 5.93183 8.88579 7.07584 8.18019 7.78145C7.47458 8.48705 6.33057 8.48705 5.62496 7.78145ZM9.80974 9.41101C9.10414 10.1166 9.10414 11.2606 9.80974 11.9662C10.5154 12.6718 11.6594 12.6718 12.365 11.9662C13.0706 11.2606 13.0706 10.1166 12.365 9.41101C11.6594 8.7054 10.5154 8.7054 9.80974 9.41101Z" fill="#FFD06B"/>
</svg>
