<svg width="24" height="25" viewBox="0 0 24 25" fill="none" xmlns="http://www.w3.org/2000/svg">
<path fill-rule="evenodd" clip-rule="evenodd" d="M5.21204 7.18276C4.42438 7.97041 3.98188 9.0387 3.98188 10.1526C3.98188 11.2665 4.42438 12.3348 5.21204 13.1225L12.0003 19.9107L18.7885 13.1225C19.5761 12.3348 20.0186 11.2665 20.0186 10.1526C20.0186 9.0387 19.5761 7.97041 18.7885 7.18276C18.0008 6.3951 16.9325 5.9526 15.8186 5.9526C14.7047 5.95261 13.6364 6.3951 12.8488 7.18276L12.2076 7.82398L12.0003 8.03129L11.793 7.82398L11.1517 7.18275C10.3641 6.3951 9.29579 5.9526 8.18188 5.9526C7.06798 5.9526 5.99969 6.3951 5.21204 7.18276Z" fill="#FFD06B"/>
<path d="M3.98188 10.1526H1.48188H3.98188ZM5.21204 13.1225L6.9798 11.3547L5.21204 13.1225ZM12.0003 19.9107L10.2325 21.6784C10.7013 22.1473 11.3372 22.4107 12.0003 22.4107C12.6633 22.4107 13.2992 22.1473 13.768 21.6784L12.0003 19.9107ZM18.7885 13.1225L17.0207 11.3547V11.3547L18.7885 13.1225ZM20.0186 10.1526L22.5186 10.1526V10.1526L20.0186 10.1526ZM15.8186 5.9526L15.8186 3.45261H15.8186L15.8186 5.9526ZM12.8488 7.18276L14.6166 8.95052L14.6166 8.95052L12.8488 7.18276ZM12.2076 7.82398L10.4398 6.05621L10.4398 6.05623L12.2076 7.82398ZM12.0003 8.03129L10.2325 9.79905C10.7013 10.2679 11.3372 10.5313 12.0003 10.5313C12.6633 10.5313 13.2992 10.2679 13.768 9.79904L12.0003 8.03129ZM11.793 7.82398L10.0252 9.59174L11.793 7.82398ZM11.1517 7.18275L12.9195 5.41499L11.1517 7.18275ZM8.18188 5.9526L8.18189 3.4526H8.18189L8.18188 5.9526ZM6.48188 10.1526C6.48188 9.70174 6.66099 9.26933 6.9798 8.95052L3.44427 5.41499C2.18778 6.67148 1.48188 8.37565 1.48188 10.1526H6.48188ZM6.9798 11.3547C6.66099 11.0359 6.48188 10.6035 6.48188 10.1526H1.48188C1.48188 11.9296 2.18778 13.6337 3.44427 14.8902L6.9798 11.3547ZM13.768 18.1429L6.9798 11.3547L3.44427 14.8902L10.2325 21.6784L13.768 18.1429ZM13.768 21.6784L20.5563 14.8902L17.0207 11.3547L10.2325 18.1429L13.768 21.6784ZM20.5563 14.8902C21.8127 13.6337 22.5186 11.9296 22.5186 10.1526L17.5186 10.1526C17.5186 10.6035 17.3395 11.0359 17.0207 11.3547L20.5563 14.8902ZM22.5186 10.1526C22.5186 8.37565 21.8127 6.67148 20.5563 5.41499L17.0207 8.95052C17.3395 9.26933 17.5186 9.70174 17.5186 10.1526L22.5186 10.1526ZM20.5563 5.41499C19.2998 4.1585 17.5956 3.4526 15.8186 3.45261L15.8186 8.45261C16.2695 8.45261 16.7019 8.63171 17.0207 8.95052L20.5563 5.41499ZM15.8186 3.45261C14.0417 3.45261 12.3375 4.15849 11.081 5.41499L14.6166 8.95052C14.9354 8.63171 15.3678 8.45261 15.8186 8.45261L15.8186 3.45261ZM11.081 5.41499L10.4398 6.05621L13.9753 9.59175L14.6166 8.95052L11.081 5.41499ZM10.4398 6.05623L10.2325 6.26353L13.768 9.79904L13.9753 9.59173L10.4398 6.05623ZM10.0252 9.59174L10.2325 9.79905L13.768 6.26352L13.5607 6.05621L10.0252 9.59174ZM9.38396 8.95052L10.0252 9.59174L13.5607 6.05621L12.9195 5.41499L9.38396 8.95052ZM8.18188 8.4526C8.63275 8.4526 9.06515 8.63171 9.38396 8.95052L12.9195 5.41499C11.663 4.15849 9.95883 3.4526 8.18189 3.4526L8.18188 8.4526ZM6.9798 8.95052C7.29861 8.63171 7.73102 8.4526 8.18188 8.4526L8.18189 3.4526C6.40493 3.4526 4.70076 4.1585 3.44427 5.41499L6.9798 8.95052Z" fill="#FFD06B"/>
</svg>
