<svg width="124" height="124" viewBox="0 0 124 124" fill="none" xmlns="http://www.w3.org/2000/svg">
<path d="M48.9781 6.74924C55.3273 -2.24974 68.6727 -2.24975 75.0219 6.74924L75.4298 7.32744C78.9766 12.3545 85.1003 14.8911 91.163 13.8443L91.8603 13.724C102.713 11.8503 112.15 21.2869 110.276 32.1397L110.156 32.837C109.109 38.8997 111.645 45.0234 116.673 48.5702L117.251 48.9781C126.25 55.3273 126.25 68.6727 117.251 75.0219L116.673 75.4298C111.645 78.9766 109.109 85.1003 110.156 91.163L110.276 91.8603C112.15 102.713 102.713 112.15 91.8603 110.276L91.163 110.156C85.1003 109.109 78.9766 111.645 75.4298 116.673L75.0219 117.251C68.6727 126.25 55.3273 126.25 48.9781 117.251L48.5702 116.673C45.0234 111.645 38.8997 109.109 32.837 110.156L32.1397 110.276C21.2869 112.15 11.8503 102.713 13.724 91.8603L13.8443 91.163C14.8911 85.1003 12.3545 78.9766 7.32744 75.4298L6.74924 75.0219C-2.24975 68.6727 -2.24975 55.3273 6.74924 48.9781L7.32744 48.5702C12.3545 45.0234 14.8911 38.8997 13.8443 32.837L13.724 32.1397C11.8503 21.2869 21.2869 11.8503 32.1397 13.724L32.837 13.8443C38.8997 14.8911 45.0234 12.3545 48.5702 7.32745L48.9781 6.74924Z" fill="#FFD06B" fill-opacity="0.55"/>
<path d="M67.9302 53.0805C67.9302 50.3764 65.7063 48.1638 62.9888 48.1638C60.2712 48.1638 58.0474 50.3752 58.0474 53.0793L58.0474 84.755C58.0474 87.459 60.2712 89.6716 62.9888 89.6716C65.7052 89.6716 67.929 87.459 67.9302 84.755L67.9302 53.0805Z" fill="#FFD06B"/>
<path d="M67.9302 39.2693C67.9302 36.5519 65.7061 34.3279 62.9888 34.3279C60.2714 34.3279 58.0474 36.5519 58.0474 39.2693C58.0474 41.9867 60.2714 44.2107 62.9888 44.2107C65.7061 44.2107 67.9302 41.9867 67.9302 39.2693Z" fill="#FFD06B"/>
</svg>
