<svg width="24" height="24" viewBox="0 0 24 24" fill="none" xmlns="http://www.w3.org/2000/svg">
<path d="M22.3 12C22.3 17.6856 17.6907 22.3 12 22.3C6.30927 22.3 1.7 17.6856 1.7 12C1.7 6.3092 6.30921 1.7 12 1.7C17.6908 1.7 22.3 6.3092 22.3 12Z" fill="#121212" stroke="#F7F7F7" stroke-width="0.4"/>
<path d="M16.9216 9.34304C16.8643 9.37646 15.5003 10.0819 15.5003 11.6459C15.5646 13.4296 17.2216 14.0551 17.25 14.0551C17.2216 14.0885 16.9998 14.9072 16.343 15.7654C15.8217 16.5047 15.2432 17.25 14.3646 17.25C13.5289 17.25 13.2289 16.7573 12.2646 16.7573C11.229 16.7573 10.936 17.25 10.1431 17.25C9.26458 17.25 8.64315 16.4647 8.09345 15.7324C7.37932 14.7739 6.77233 13.2698 6.7509 11.8256C6.73646 11.0603 6.89392 10.308 7.29361 9.66904C7.85774 8.77699 8.86489 8.17143 9.96473 8.15146C10.8074 8.12498 11.5574 8.6906 12.0717 8.6906C12.5646 8.6906 13.486 8.15146 14.5286 8.15146C14.9786 8.1519 16.1786 8.27822 16.9216 9.34304ZM12.0005 7.99866C11.8505 7.29978 12.2646 6.60089 12.6503 6.15508C13.1432 5.61594 13.9216 5.25 14.5929 5.25C14.6357 5.94889 14.3641 6.63432 13.8787 7.13352C13.4432 7.67266 12.6932 8.07853 12.0005 7.99866Z" fill="white"/>
</svg>
