<svg width="16" height="18" viewBox="0 0 16 18" fill="none" xmlns="http://www.w3.org/2000/svg">
<path d="M6.12629 14.1001C5.99353 14.3764 5.92134 14.6831 5.92134 15.0001C5.92134 15.7427 6.3175 16.4288 6.96057 16.8001C7.60365 17.1714 8.39596 17.1714 9.03903 16.8001C9.68211 16.4288 10.0783 15.7427 10.0783 15.0001C10.0783 14.6831 10.0061 14.3764 9.87331 14.1001H6.12629Z" fill="#C2CCDE" fill-opacity="0.25"/>
<path d="M7.88803 2.1001C6.61499 2.1001 5.39409 2.60581 4.49392 3.50598L4.30569 3.69421C3.40552 4.59438 2.8998 5.81529 2.8998 7.08832V7.96977C2.8998 9.59004 2.25615 11.1439 1.11044 12.2896C0.911545 12.4885 0.799805 12.7583 0.799805 13.0396C0.799805 13.6253 1.27463 14.1001 1.86036 14.1001H14.1392C14.725 14.1001 15.1998 13.6253 15.1998 13.0396C15.1998 12.7583 15.0881 12.4885 14.8892 12.2896C13.7435 11.1439 13.0998 9.59004 13.0998 7.96977V7.08832C13.0998 5.81528 12.5941 4.59439 11.6939 3.69421L11.5057 3.50599C10.6055 2.60581 9.38462 2.1001 8.11158 2.1001H7.88803Z" fill="#C2CCDE" fill-opacity="0.25"/>
<path d="M8.5998 2.12498V1.2001C8.5998 0.868727 8.33117 0.600098 7.9998 0.600098C7.66843 0.600098 7.3998 0.868727 7.3998 1.2001V2.12498C7.5613 2.10847 7.72423 2.1001 7.88803 2.1001H8.11158C8.27537 2.1001 8.43831 2.10847 8.5998 2.12498Z" fill="#C2CCDE" fill-opacity="0.25"/>
<path d="M7.88803 2.1001C6.61499 2.1001 5.39409 2.60581 4.49392 3.50598L4.30569 3.69421C3.40552 4.59438 2.8998 5.81529 2.8998 7.08832V7.96977C2.8998 9.59004 2.25615 11.1439 1.11044 12.2896C0.911545 12.4885 0.799805 12.7583 0.799805 13.0396C0.799805 13.6253 1.27463 14.1001 1.86036 14.1001H14.1392C14.725 14.1001 15.1998 13.6253 15.1998 13.0396C15.1998 12.7583 15.0881 12.4885 14.8892 12.2896C13.7435 11.1439 13.0998 9.59004 13.0998 7.96977V7.08832C13.0998 5.81528 12.5941 4.59439 11.6939 3.69421L11.5057 3.50598C10.6055 2.60581 9.38462 2.1001 8.11158 2.1001M7.88803 2.1001H8.11158M7.88803 2.1001C7.72423 2.1001 7.5613 2.10847 7.3998 2.12498V1.2001C7.3998 0.868727 7.66843 0.600098 7.9998 0.600098C8.33118 0.600098 8.5998 0.868727 8.5998 1.2001V2.12498C8.43831 2.10847 8.27537 2.1001 8.11158 2.1001M5.92134 15.0001C5.92134 14.6831 5.99353 14.3764 6.12629 14.1001H9.87331C10.0061 14.3764 10.0783 14.6831 10.0783 15.0001C10.0783 15.7427 9.68211 16.4288 9.03903 16.8001C8.39596 17.1714 7.60365 17.1714 6.96057 16.8001C6.3175 16.4288 5.92134 15.7427 5.92134 15.0001Z" stroke="#414141" stroke-linecap="round" stroke-linejoin="round"/>
</svg>
