<svg width="7" height="7" viewBox="0 0 7 7" fill="none" xmlns="http://www.w3.org/2000/svg">
<path d="M6.10471 1.04551H5.34003C5.3298 1.04196 5.31917 1.03966 5.30839 1.0386H4.49422V0.363347C4.49426 0.312601 4.47437 0.263882 4.43891 0.227639C4.40341 0.191399 4.35515 0.170492 4.30445 0.169434H2.37894C2.3275 0.169434 2.27818 0.189833 2.24185 0.226211C2.20547 0.262589 2.18503 0.311907 2.18503 0.363346V1.0386H1.37499C1.36421 1.03966 1.35357 1.04196 1.34335 1.0455H0.578674C0.509372 1.0455 0.445359 1.08243 0.410737 1.14244C0.376109 1.20244 0.376109 1.27634 0.410737 1.33634C0.445365 1.39634 0.509373 1.43332 0.578674 1.43332H1.20167L1.70507 6.11626C1.71045 6.16392 1.7332 6.2079 1.76898 6.2399C1.80472 6.27186 1.85099 6.28949 1.89897 6.28954H4.78713C4.8346 6.28885 4.88019 6.27084 4.91542 6.23898C4.9506 6.20707 4.97294 6.16346 4.97828 6.11626L5.48163 1.44016H6.10467C6.17397 1.44016 6.23798 1.40323 6.27261 1.34322C6.30723 1.28322 6.30724 1.20927 6.27261 1.14932C6.23798 1.08932 6.17397 1.05234 6.10467 1.05234L6.10471 1.04551ZM2.57703 0.557253H4.10634V1.0386H2.57703V0.557253ZM4.61112 5.89893H2.07225L1.59091 1.4402H5.09241L4.61112 5.89893Z" fill="#E41D1D"/>
<path d="M3.34137 5.44508C3.3928 5.44508 3.44212 5.42463 3.4785 5.3883C3.51488 5.35192 3.53528 5.3026 3.53528 5.25117V2.08799C3.53528 2.01868 3.49835 1.95467 3.43835 1.92005C3.37835 1.88537 3.3044 1.88537 3.24439 1.92005C3.18439 1.95468 3.14746 2.01868 3.14746 2.08799V5.25117C3.14746 5.3026 3.16786 5.35192 3.20424 5.3883C3.24062 5.42463 3.28993 5.44508 3.34137 5.44508H3.34137Z" fill="#E41D1D"/>
<path d="M2.57853 5.44362H2.58677C2.63797 5.44151 2.68623 5.41917 2.72105 5.38155C2.75582 5.34393 2.77433 5.29406 2.77244 5.24285L2.65552 2.07967L2.65557 2.07962C2.65451 2.02782 2.63236 1.97864 2.59419 1.94355C2.55597 1.90851 2.50513 1.89059 2.45337 1.89396C2.40217 1.89612 2.35391 1.91845 2.31914 1.95607C2.28433 1.9937 2.26586 2.04357 2.2677 2.09478L2.38462 5.25796C2.38706 5.30783 2.40852 5.35489 2.44462 5.38942C2.48068 5.42391 2.52861 5.44334 2.57853 5.44362L2.57853 5.44362Z" fill="#E41D1D"/>
<path d="M4.09746 5.44364H4.10432C4.15543 5.44479 4.20493 5.42582 4.24223 5.39087C4.27948 5.35587 4.30159 5.30766 4.30375 5.25659L4.42067 2.09341H4.42062C4.42251 2.0422 4.404 1.99233 4.36923 1.9547C4.33442 1.91708 4.28616 1.89475 4.23495 1.89259C4.18259 1.8872 4.13037 1.9041 4.0911 1.93919C4.05182 1.97423 4.02916 2.02424 4.02865 2.07692L3.91036 5.2401H3.9104C3.90778 5.292 3.92611 5.34279 3.96129 5.38106C3.99642 5.41932 4.04551 5.44189 4.09746 5.44363L4.09746 5.44364Z" fill="#E41D1D"/>
</svg>
