<svg width="20" height="20" viewBox="0 0 20 20" fill="none" xmlns="http://www.w3.org/2000/svg">
<path fill-rule="evenodd" clip-rule="evenodd" d="M1.464 1.464C0 2.93 0 5.286 0 10C0 14.714 0 17.071 1.464 18.535C2.93 20 5.286 20 10 20C14.714 20 17.071 20 18.535 18.535C20 17.072 20 14.714 20 10C20 5.286 20 2.929 18.535 1.464C17.072 0 14.714 0 10 0C5.286 0 2.929 0 1.464 1.464ZM11.01 4.57C10.696 4.334 10.396 4.11 10.138 3.97C9.874 3.826 9.422 3.641 8.941 3.882C8.46 4.122 8.336 4.595 8.292 4.892C8.25 5.182 8.25 5.557 8.25 5.95V8.399L6.48 6.924C6.40473 6.85815 6.31705 6.80802 6.22213 6.77656C6.1272 6.7451 6.02694 6.73294 5.92724 6.7408C5.82754 6.74865 5.73042 6.77637 5.6416 6.82232C5.55277 6.86826 5.47403 6.93151 5.41001 7.00834C5.34598 7.08517 5.29797 7.17402 5.2688 7.26968C5.23962 7.36533 5.22987 7.46586 5.24012 7.56534C5.25037 7.66482 5.28041 7.76124 5.32847 7.84894C5.37654 7.93664 5.44166 8.01384 5.52 8.076L7.828 10L5.52 11.924C5.37264 12.0529 5.28153 12.2344 5.26615 12.4295C5.25076 12.6247 5.31232 12.8182 5.43766 12.9686C5.56301 13.119 5.7422 13.2145 5.93697 13.2345C6.13173 13.2546 6.32662 13.1977 6.48 13.076L8.25 11.601V14.051C8.25 14.443 8.25 14.817 8.293 15.108C8.336 15.406 8.46 15.878 8.941 16.118C9.422 16.358 9.874 16.174 10.138 16.031C10.396 15.891 10.696 15.666 11.01 15.431L12.417 14.375C12.632 14.214 12.854 14.048 13.015 13.885C13.198 13.701 13.417 13.412 13.417 13C13.417 12.588 13.198 12.3 13.015 12.115C12.827 11.9384 12.6272 11.7746 12.417 11.625L10.25 10L12.417 8.375C12.632 8.214 12.854 8.048 13.015 7.885C13.198 7.701 13.417 7.412 13.417 7C13.417 6.588 13.198 6.3 13.015 6.115C12.827 5.93836 12.6272 5.77465 12.417 5.625L11.01 4.57Z" fill="#FFD06B"/>
</svg>
