<svg width="15" height="13" viewBox="0 0 15 13" fill="none" xmlns="http://www.w3.org/2000/svg">
<path fill-rule="evenodd" clip-rule="evenodd" d="M4.29008 2.7026L4.44999 2.31423C4.75856 1.5648 5.4889 1.07568 6.29937 1.07568L8.91059 1.07568C9.72106 1.07568 10.4514 1.5648 10.76 2.31423L10.9199 2.7026H11.5C13.1569 2.7026 14.5 4.04575 14.5 5.7026L14.5 8.99918C14.5 10.656 13.1569 11.9992 11.5 11.9992L3.5 11.9992C1.84315 11.9992 0.5 10.656 0.5 8.99918L0.5 5.7026C0.5 4.04575 1.84315 2.7026 3.5 2.7026L4.29008 2.7026Z" fill="#C2CCDE" fill-opacity="0.25"/>
<path d="M4.29008 2.7026V3.2026H4.62494L4.75243 2.89296L4.29008 2.7026ZM4.44999 2.31423L4.91234 2.50459L4.44999 2.31423ZM10.76 2.31423L11.2223 2.12386V2.12386L10.76 2.31423ZM10.9199 2.7026L10.4575 2.89296L10.585 3.2026H10.9199V2.7026ZM4.75243 2.89296L4.91234 2.50459L3.98765 2.12386L3.82774 2.51224L4.75243 2.89296ZM4.91234 2.50459C5.14376 1.94252 5.69152 1.57568 6.29937 1.57568V0.575684C5.28628 0.575684 4.37336 1.18708 3.98765 2.12386L4.91234 2.50459ZM6.29937 1.57568L8.91059 1.57568V0.575684L6.29937 0.575684V1.57568ZM8.91059 1.57568C9.51844 1.57568 10.0662 1.94252 10.2976 2.50459L11.2223 2.12386C10.8366 1.18708 9.92367 0.575684 8.91059 0.575684V1.57568ZM10.2976 2.50459L10.4575 2.89296L11.3822 2.51224L11.2223 2.12386L10.2976 2.50459ZM10.9199 3.2026H11.5V2.2026H10.9199V3.2026ZM11.5 3.2026C12.8807 3.2026 14 4.32189 14 5.7026L15 5.7026C15 3.7696 13.433 2.2026 11.5 2.2026V3.2026ZM14 5.7026L14 8.99918L15 8.99918L15 5.7026L14 5.7026ZM14 8.99918C14 10.3799 12.8807 11.4992 11.5 11.4992V12.4992C13.433 12.4992 15 10.9322 15 8.99918L14 8.99918ZM11.5 11.4992L3.5 11.4992V12.4992L11.5 12.4992V11.4992ZM3.5 11.4992C2.11929 11.4992 1 10.3799 1 8.99918H0C0 10.9322 1.567 12.4992 3.5 12.4992V11.4992ZM1 8.99918L1 5.7026H0L0 8.99918H1ZM1 5.7026C1 4.32189 2.11929 3.2026 3.5 3.2026L3.5 2.2026C1.567 2.2026 0 3.7696 0 5.7026H1ZM3.5 3.2026H4.29008V2.2026L3.5 2.2026L3.5 3.2026Z" fill="white"/>
<path d="M6.06653 4.63414C6.96177 4.15363 8.03823 4.15363 8.93347 4.63414L9.09762 4.72225C9.98032 5.19603 10.5311 6.11673 10.5311 7.11855V7.11855C10.5311 8.12037 9.98033 9.04107 9.09762 9.51485L8.93347 9.60295C8.03823 10.0835 6.96177 10.0835 6.06653 9.60295L5.90238 9.51485C5.01968 9.04107 4.46891 8.12037 4.46891 7.11855V7.11855C4.46891 6.11673 5.01967 5.19603 5.90238 4.72225L6.06653 4.63414Z" stroke="white" stroke-linecap="round" stroke-linejoin="round"/>
</svg>
