<svg width="16" height="17" viewBox="0 0 16 17" fill="none" xmlns="http://www.w3.org/2000/svg">
<g clip-path="url(#clip0_1_7281)">
<path d="M8.0002 12.9507C10.4586 12.9507 12.4515 10.9577 12.4515 8.49929C12.4515 6.04085 10.4586 4.04785 8.0002 4.04785C5.54177 4.04785 3.54883 6.04085 3.54883 8.49929C3.54883 10.9577 5.54177 12.9507 8.0002 12.9507Z" fill="white"/>
<path d="M2.24303 6.31204C1.91096 5.73685 1.52065 5.13316 1.07203 4.50098C0.369757 5.71706 2.38548e-05 7.09661 1.15428e-09 8.5009C-2.38525e-05 9.9052 0.369663 11.2848 1.07189 12.5009C1.77412 13.717 2.78414 14.7268 4.0004 15.4288C5.21666 16.1307 6.59629 16.5001 8.00059 16.4998C8.73684 15.4671 9.23684 14.7225 9.50034 14.266C10.0065 13.3893 10.6612 12.134 11.4643 10.5004V10.4994C11.1134 11.1077 10.6086 11.613 10.0005 11.9643C9.39241 12.3156 8.70256 12.5006 8.0003 12.5007C7.29804 12.5008 6.60813 12.316 5.99995 11.9649C5.39178 11.6138 4.88677 11.1087 4.53571 10.5005C3.4449 8.46623 2.68071 7.07004 2.24303 6.31204Z" fill="#229342"/>
<path d="M8.00046 16.5002C9.05105 16.5003 10.0914 16.2935 11.062 15.8915C12.0327 15.4896 12.9146 14.9003 13.6575 14.1574C14.4003 13.4145 14.9896 12.5325 15.3915 11.5618C15.7934 10.5912 16.0002 9.55083 16 8.50024C15.9997 7.09592 15.6297 5.71642 14.9273 4.50043C13.4118 4.35105 12.2933 4.27637 11.5719 4.27637C10.7539 4.27637 9.56321 4.35105 7.9999 4.50043L7.99902 4.50105C8.70129 4.50073 9.39127 4.68531 9.99957 5.03626C10.6079 5.3872 11.113 5.89212 11.4643 6.50024C11.8155 7.10838 12.0004 7.79829 12.0004 8.50056C12.0004 9.20284 11.8155 9.89274 11.4642 10.5009L8.00046 16.5002Z" fill="#FBC116"/>
<path d="M7.99988 11.6677C9.74888 11.6677 11.1667 10.2499 11.1667 8.50086C11.1667 6.75173 9.74888 5.33398 7.99982 5.33398C6.25088 5.33398 4.83301 6.75186 4.83301 8.50086C4.83301 10.2499 6.25088 11.6677 7.99988 11.6677Z" fill="#FFD06B"/>
<path d="M8.00027 4.50027H14.9276C14.2256 3.28399 13.2158 2.27397 11.9997 1.57176C10.7835 0.869547 9.40396 0.499905 7.99965 0.5C6.59534 0.500095 5.21581 0.869924 3.99978 1.5723C2.78374 2.27467 1.77406 3.28484 1.07227 4.50121L4.53595 10.5006L4.53689 10.5011C4.18549 9.89306 4.00037 9.20322 4.00017 8.50095C3.99996 7.79868 4.18467 7.10873 4.53571 6.5005C4.88676 5.89226 5.39177 5.38718 5.99995 5.03605C6.60814 4.68491 7.29806 4.5001 8.00033 4.50021L8.00027 4.50027Z" fill="#E33B2E"/>
</g>
<defs>
<clipPath id="clip0_1_7281">
<rect width="16" height="16" fill="white" transform="translate(0 0.5)"/>
</clipPath>
</defs>
</svg>
