<svg width="15" height="13" viewBox="0 0 15 13" fill="none" xmlns="http://www.w3.org/2000/svg">
<path d="M6.57618 10.2963C6.6461 10.366 6.70157 10.4488 6.73943 10.54C6.77728 10.6311 6.79677 10.7289 6.79677 10.8276C6.79677 10.9263 6.77728 11.024 6.73943 11.1152C6.70157 11.2064 6.6461 11.2892 6.57618 11.3588L6.25618 11.6788C5.91649 12.0198 5.51258 12.29 5.0678 12.4739C4.62303 12.6578 4.14621 12.7516 3.66493 12.7501C2.94013 12.7503 2.23156 12.5356 1.62884 12.133C1.02612 11.7304 0.556351 11.1582 0.278954 10.4886C0.00155643 9.81894 -0.071 9.0821 0.0704639 8.37125C0.211928 7.6604 0.561055 7.00747 1.07368 6.49509L3.24555 4.32321C3.70751 3.86132 4.28453 3.5313 4.91687 3.36731C5.54921 3.20332 6.2139 3.21132 6.84211 3.39049C7.47032 3.56966 8.03922 3.91348 8.48992 4.38637C8.94063 4.85925 9.25674 5.444 9.40555 6.08009C9.4302 6.1768 9.43529 6.27746 9.42054 6.37617C9.40578 6.47488 9.37147 6.56965 9.31962 6.65493C9.26777 6.74021 9.19942 6.81428 9.11858 6.87281C9.03773 6.93133 8.94602 6.97313 8.84881 6.99576C8.75161 7.01839 8.65086 7.02139 8.55248 7.00458C8.4541 6.98777 8.36007 6.9515 8.27589 6.89789C8.1917 6.84427 8.11907 6.77439 8.06224 6.69235C8.00541 6.6103 7.96553 6.51774 7.94493 6.42009C7.85662 6.04461 7.66964 5.69952 7.4033 5.42051C7.13696 5.1415 6.80093 4.93869 6.42996 4.83304C6.05899 4.7274 5.66653 4.72275 5.29315 4.81958C4.91978 4.91641 4.57905 5.11121 4.30618 5.38384L2.1343 7.55571C1.83156 7.85821 1.62532 8.24369 1.54167 8.66341C1.45802 9.08312 1.50071 9.51822 1.66435 9.91367C1.82799 10.3091 2.10522 10.6472 2.46099 10.885C2.81676 11.1229 3.23508 11.25 3.66305 11.2501C3.94742 11.2509 4.22912 11.1953 4.49186 11.0866C4.75459 10.9778 4.99313 10.8179 5.19368 10.6163L5.51305 10.2963C5.58274 10.2263 5.66558 10.1708 5.7568 10.1329C5.84802 10.0949 5.94583 10.0754 6.04461 10.0754C6.1434 10.0754 6.24121 10.0949 6.33243 10.1329C6.42365 10.1708 6.50649 10.2263 6.57618 10.2963ZM13.4293 1.32321C12.7419 0.636033 11.8097 0.25 10.8377 0.25C9.86576 0.25 8.93358 0.636033 8.24618 1.32321L7.9268 1.64259C7.78591 1.78348 7.70675 1.97458 7.70675 2.17384C7.70675 2.37309 7.78591 2.56419 7.9268 2.70509C8.0677 2.84598 8.25879 2.92514 8.45805 2.92514C8.65731 2.92514 8.84841 2.84598 8.9893 2.70509L9.3093 2.38509C9.71542 1.97897 10.2662 1.75082 10.8406 1.75082C11.4149 1.75082 11.9657 1.97897 12.3718 2.38509C12.7779 2.7912 13.0061 3.34201 13.0061 3.91634C13.0061 4.49067 12.7779 5.04147 12.3718 5.44759L10.1962 7.61634C9.99564 7.81795 9.75709 7.97777 9.49436 8.08655C9.23162 8.19534 8.94992 8.25092 8.66555 8.25009C8.17774 8.24974 7.70434 8.08461 7.32214 7.78149C6.93994 7.47836 6.67135 7.05501 6.55993 6.58009C6.51484 6.38631 6.39462 6.21839 6.22572 6.11325C6.05682 6.00811 5.85308 5.97437 5.6593 6.01946C5.46553 6.06455 5.2976 6.18476 5.19246 6.35366C5.08733 6.52256 5.05359 6.72631 5.09868 6.92009C5.28687 7.72438 5.74124 8.44152 6.38811 8.9552C7.03498 9.46889 7.83641 9.74899 8.66243 9.75009H8.66555C9.14706 9.7514 9.62405 9.65724 10.0689 9.47304C10.5138 9.28885 10.9178 9.01827 11.2574 8.67696L13.4293 6.50509C13.7696 6.16487 14.0395 5.76094 14.2237 5.31638C14.4079 4.87183 14.5027 4.39534 14.5027 3.91415C14.5027 3.43295 14.4079 2.95647 14.2237 2.51191C14.0395 2.06736 13.7696 1.66343 13.4293 1.32321Z" fill="#FFD06B"/>
</svg>
