<svg width="13" height="13" viewBox="0 0 13 13" fill="none" xmlns="http://www.w3.org/2000/svg">
<circle cx="6.44432" cy="6.22948" r="6.1201" fill="#FFF3F3"/>
<path d="M9.10471 4.04551H8.34003C8.3298 4.04196 8.31917 4.03966 8.30839 4.0386H7.49422V3.36335C7.49426 3.3126 7.47437 3.26388 7.43891 3.22764C7.40341 3.1914 7.35515 3.17049 7.30445 3.16943H5.37894C5.3275 3.16943 5.27818 3.18983 5.24185 3.22621C5.20547 3.26259 5.18503 3.31191 5.18503 3.36335V4.0386H4.37499C4.36421 4.03966 4.35357 4.04196 4.34335 4.0455H3.57867C3.50937 4.0455 3.44536 4.08243 3.41074 4.14244C3.37611 4.20244 3.37611 4.27634 3.41074 4.33634C3.44537 4.39634 3.50937 4.43332 3.57867 4.43332H4.20167L4.70507 9.11626C4.71045 9.16392 4.7332 9.2079 4.76898 9.2399C4.80472 9.27186 4.85099 9.28949 4.89897 9.28954H7.78713C7.8346 9.28885 7.88019 9.27084 7.91542 9.23898C7.9506 9.20707 7.97294 9.16346 7.97828 9.11626L8.48163 4.44016H9.10467C9.17397 4.44016 9.23798 4.40323 9.27261 4.34322C9.30723 4.28322 9.30724 4.20927 9.27261 4.14932C9.23798 4.08932 9.17397 4.05234 9.10467 4.05234L9.10471 4.04551ZM5.57703 3.55725H7.10634V4.0386H5.57703V3.55725ZM7.61112 8.89893H5.07225L4.59091 4.4402H8.09241L7.61112 8.89893Z" fill="#E41D1D"/>
<path d="M6.34137 8.44508C6.3928 8.44508 6.44212 8.42463 6.4785 8.3883C6.51488 8.35192 6.53528 8.3026 6.53528 8.25117V5.08799C6.53528 5.01868 6.49835 4.95467 6.43835 4.92005C6.37835 4.88537 6.3044 4.88537 6.24439 4.92005C6.18439 4.95468 6.14746 5.01868 6.14746 5.08799V8.25117C6.14746 8.3026 6.16786 8.35192 6.20424 8.3883C6.24062 8.42463 6.28993 8.44508 6.34137 8.44508H6.34137Z" fill="#E41D1D"/>
<path d="M5.57853 8.44362H5.58677C5.63797 8.44151 5.68623 8.41917 5.72105 8.38155C5.75582 8.34393 5.77433 8.29406 5.77244 8.24285L5.65552 5.07967L5.65557 5.07962C5.65451 5.02782 5.63236 4.97864 5.59419 4.94355C5.55597 4.90851 5.50513 4.89059 5.45337 4.89396C5.40217 4.89612 5.35391 4.91845 5.31914 4.95607C5.28433 4.9937 5.26586 5.04357 5.2677 5.09478L5.38462 8.25796C5.38706 8.30783 5.40852 8.35489 5.44462 8.38942C5.48068 8.42391 5.52861 8.44334 5.57853 8.44362L5.57853 8.44362Z" fill="#E41D1D"/>
<path d="M7.09746 8.44364H7.10432C7.15543 8.44479 7.20493 8.42582 7.24223 8.39087C7.27948 8.35587 7.30159 8.30766 7.30375 8.25659L7.42067 5.09341H7.42062C7.42251 5.0422 7.404 4.99233 7.36923 4.9547C7.33442 4.91708 7.28616 4.89475 7.23495 4.89259C7.18259 4.8872 7.13037 4.9041 7.0911 4.93919C7.05182 4.97423 7.02916 5.02424 7.02865 5.07692L6.91036 8.2401H6.9104C6.90778 8.292 6.92611 8.34279 6.96129 8.38106C6.99642 8.41932 7.04551 8.44189 7.09746 8.44363L7.09746 8.44364Z" fill="#E41D1D"/>
</svg>
