<svg width="23" height="19" viewBox="0 0 23 19" fill="none" xmlns="http://www.w3.org/2000/svg">
<path fill-rule="evenodd" clip-rule="evenodd" d="M5.90541 0C4.24679 0 2.74694 0.414539 1.6583 1.42541C0.559339 2.44589 0 3.96129 0 5.90541V13.0946C0 15.0388 0.559339 16.5541 1.6583 17.5746C2.74694 18.5855 4.24679 19 5.90541 19H16.1757C17.8343 19 19.3342 18.5855 20.4227 17.5746C21.5218 16.5541 22.0811 15.0388 22.0811 13.0946V5.90541C22.0811 3.96129 21.5218 2.44589 20.4227 1.42541C19.3342 0.414539 17.8343 0 16.1757 0H5.90541ZM18.4644 5.76398C18.801 5.50388 18.863 5.02013 18.6028 4.68351C18.3428 4.34688 17.8591 4.28486 17.5224 4.54497L11.8254 8.94705C11.3631 9.30435 10.7178 9.30435 10.2555 8.94705L4.55856 4.54497C4.22193 4.28486 3.73819 4.34688 3.47808 4.68351C3.21796 5.02013 3.27999 5.50388 3.61661 5.76398L9.31359 10.1661C10.3308 10.952 11.7502 10.952 12.7674 10.1661L18.4644 5.76398Z" fill="#FFD06B"/>
</svg>
