<svg width="18" height="15" viewBox="0 0 18 15" fill="none" xmlns="http://www.w3.org/2000/svg">
<path d="M2.2116 2.00408C1.42394 2.79173 0.981445 3.86002 0.981445 4.97393C0.981445 6.08784 1.42395 7.15612 2.2116 7.94378L8.57556 14.3077C8.80987 14.5421 9.18977 14.5421 9.42409 14.3077L15.788 7.94378C16.5757 7.15612 17.0182 6.08784 17.0182 4.97393C17.0182 3.86002 16.5757 2.79173 15.788 2.00408C15.0004 1.21642 13.9321 0.773926 12.8182 0.773926C11.7043 0.773926 10.636 1.21643 9.84835 2.00408L9.20713 2.6453C9.09264 2.75979 8.90701 2.75979 8.79252 2.6453L8.15129 2.00408C7.36364 1.21643 6.29535 0.773926 5.18145 0.773926C4.06754 0.773926 2.99925 1.21642 2.2116 2.00408Z" fill="#D0D0D0" stroke="#D0D0D0" stroke-linecap="round" stroke-linejoin="round"/>
</svg>
