<svg width="18" height="13" viewBox="0 0 18 13" fill="none" xmlns="http://www.w3.org/2000/svg">
<path d="M13.5384 1.39209L9.04807 4.89641L4.45508 1.39209V1.39304L4.46063 1.39777V6.30476L8.99628 9.88485L13.5384 6.44304V1.39209Z" fill="#F44336"/>
<path d="M14.7178 0.539789L13.5386 1.39219V6.44314L17.2492 3.59423V1.87806C17.2492 1.87806 16.7988 -0.573068 14.7178 0.539789Z" fill="#FFD06B"/>
<path d="M13.5386 6.44315V12.9943H16.3826C16.3826 12.9943 17.1919 12.911 17.2502 11.9885V3.59424L13.5386 6.44315Z" fill="#43A048"/>
<path d="M4.46084 13.0002V6.30503L4.45508 6.30029L4.46084 13.0002Z" fill="#F44336"/>
<path d="M4.4551 1.3934L3.28234 0.545734C1.20135 -0.567123 0.75 1.88306 0.75 1.88306V3.59922L4.4551 6.30039V1.3934Z" fill="#B71B1C"/>
<path d="M4.45508 1.39307V6.30006L4.46084 6.30479V1.3978L4.45508 1.39307Z" fill="#F44336"/>
<path d="M0.75 3.6001V11.9944C0.807343 12.9178 1.61754 13.0002 1.61754 13.0002H4.46158L4.4551 6.30031L0.75 3.6001Z" fill="#304FFE"/>
</svg>
