<svg width="16" height="17" viewBox="0 0 16 17" fill="none" xmlns="http://www.w3.org/2000/svg">
<path d="M13.6328 14.133H11.2621V10.4203C11.2621 9.53498 11.2463 8.39529 10.0291 8.39529C8.79431 8.39529 8.60538 9.35991 8.60538 10.3559V14.1327H6.23475V6.49798H8.51056V7.54135H8.54244C8.77019 7.15192 9.09931 6.83155 9.49474 6.61436C9.89017 6.39718 10.3371 6.29131 10.7879 6.30804C13.1908 6.30804 13.6338 7.88854 13.6338 9.94466L13.6328 14.133ZM3.55975 5.45441C2.79994 5.45454 2.18387 4.83866 2.18375 4.07885C2.18362 3.31904 2.79944 2.70298 3.55925 2.70285C4.31906 2.70266 4.93512 3.31854 4.93525 4.07835C4.93532 4.44323 4.79044 4.79319 4.53248 5.05125C4.27453 5.30931 3.92463 5.45433 3.55975 5.45441ZM4.74512 14.133H2.37194V6.49798H4.74506L4.74512 14.133ZM14.8146 0.501164H1.18069C0.536312 0.493914 0.007875 1.0101 0 1.65448V15.3453C0.007625 15.99 0.536 16.5067 1.18062 16.4999H14.8146C15.4606 16.5079 15.9911 15.9912 16 15.3453V1.65341C15.9908 1.00779 15.4603 0.491664 14.8146 0.500102" fill="#FFD06B"/>
</svg>
