<svg width="110" height="110" viewBox="0 0 110 110" fill="none" xmlns="http://www.w3.org/2000/svg">
<circle opacity="0.08" cx="55" cy="55" r="54.5" fill="#FFFBE7" stroke="#FFD06B"/>
<circle opacity="0.15" cx="55" cy="55" r="47" fill="#FFD06B" fill-opacity="0.55"/>
<circle opacity="0.35" cx="55" cy="55" r="38" fill="#FFD06B"/>
<circle opacity="0.8" cx="55" cy="55" r="30" fill="#FFD06B"/>
<path fill-rule="evenodd" clip-rule="evenodd" d="M55 46.5303C58.3137 46.5303 61 49.2166 61 52.5303V52.8917C61 54.2175 60.5857 55.5103 59.8151 56.5892L55.0119 63.3137C55.006 63.3218 54.994 63.3218 54.9881 63.3137L50.1849 56.5892C49.4143 55.5103 49 54.2175 49 52.8917V52.5303C49 49.2166 51.6863 46.5303 55 46.5303ZM57.6351 51.9646C57.4521 51.1627 56.9138 50.4877 56.1727 50.1308C55.4316 49.7739 54.5684 49.7739 53.8273 50.1308C53.0861 50.4877 52.5479 51.1627 52.3649 51.9646C52.1818 52.7665 52.3739 53.6082 52.8868 54.2513C53.3996 54.8944 54.1774 55.2689 55 55.2689C55.8226 55.2689 56.6004 54.8944 57.1132 54.2513C57.6261 53.6082 57.8182 52.7665 57.6351 51.9646Z" fill="#414141"/>
<path d="M59.8151 56.5892L61.0357 57.461V57.461L59.8151 56.5892ZM55.0119 63.3137L56.2324 64.1855L56.2325 64.1855L55.0119 63.3137ZM54.9881 63.3137L53.7675 64.1855L53.7676 64.1855L54.9881 63.3137ZM50.1849 56.5892L48.9643 57.461H48.9643L50.1849 56.5892ZM56.1727 50.1308L55.5219 51.4823L56.1727 50.1308ZM57.6351 51.9646L56.1727 52.2984V52.2984L57.6351 51.9646ZM52.3649 51.9646L50.9025 51.6308L50.9025 51.6308L52.3649 51.9646ZM52.8868 54.2513L51.714 55.1865L51.714 55.1865L52.8868 54.2513ZM57.1132 54.2513L58.286 55.1865H58.286L57.1132 54.2513ZM62.5 52.5303C62.5 48.3881 59.1421 45.0303 55 45.0303V48.0303C57.4853 48.0303 59.5 50.045 59.5 52.5303H62.5ZM62.5 52.8917V52.5303H59.5V52.8917H62.5ZM61.0357 57.461C61.988 56.1277 62.5 54.5302 62.5 52.8917H59.5C59.5 53.9049 59.1834 54.8928 58.5945 55.7173L61.0357 57.461ZM56.2325 64.1855L61.0357 57.461L58.5945 55.7173L53.7913 62.4418L56.2325 64.1855ZM53.7676 64.1855C54.3716 65.0312 55.6284 65.0312 56.2324 64.1855L53.7913 62.4418C54.3837 61.6124 55.6163 61.6124 56.2087 62.4418L53.7676 64.1855ZM48.9643 57.461L53.7675 64.1855L56.2087 62.4418L51.4055 55.7173L48.9643 57.461ZM47.5 52.8917C47.5 54.5302 48.012 56.1277 48.9643 57.461L51.4055 55.7173C50.8166 54.8928 50.5 53.9049 50.5 52.8917H47.5ZM47.5 52.5303V52.8917H50.5V52.5303H47.5ZM55 45.0303C50.8579 45.0303 47.5 48.3881 47.5 52.5303H50.5C50.5 50.045 52.5147 48.0303 55 48.0303V45.0303ZM55.5219 51.4823C55.8517 51.6411 56.0913 51.9415 56.1727 52.2984L59.0975 51.6308C58.8129 50.3838 57.976 49.3343 56.8236 48.7794L55.5219 51.4823ZM54.4781 51.4823C54.8079 51.3234 55.1921 51.3234 55.5219 51.4823L56.8236 48.7794C55.6712 48.2244 54.3288 48.2244 53.1764 48.7794L54.4781 51.4823ZM53.8273 52.2984C53.9087 51.9415 54.1483 51.6411 54.4781 51.4823L53.1764 48.7794C52.024 49.3343 51.1871 50.3838 50.9025 51.6308L53.8273 52.2984ZM54.0595 53.316C53.8313 53.0298 53.7458 52.6553 53.8273 52.2984L50.9025 51.6308C50.6179 52.8778 50.9166 54.1865 51.714 55.1865L54.0595 53.316ZM55 53.7689C54.6339 53.7689 54.2878 53.6022 54.0595 53.316L51.714 55.1865C52.5115 56.1865 53.721 56.7689 55 56.7689V53.7689ZM55.9405 53.316C55.7122 53.6022 55.3661 53.7689 55 53.7689V56.7689C56.279 56.7689 57.4885 56.1865 58.286 55.1865L55.9405 53.316ZM56.1727 52.2984C56.2542 52.6553 56.1687 53.0298 55.9405 53.316L58.286 55.1865C59.0834 54.1865 59.3821 52.8778 59.0975 51.6308L56.1727 52.2984Z" fill="#414141"/>
</svg>
