<svg width="106" height="35" viewBox="0 0 106 35" fill="none" xmlns="http://www.w3.org/2000/svg">
<path d="M27.0898 1.09535L15.7476 20.0314L4.38116 1.07101C3.99173 0.413845 3.18853 0.0244141 2.33665 0.0244141H0.0244141L0.073092 24.5342H1.84987C3.23721 24.5342 4.38116 23.5606 4.38116 22.3923V9.17602L13.046 23.3415C13.5571 24.1691 14.5794 24.6559 15.772 24.6559C16.9646 24.6559 18.0112 24.1447 18.498 23.3415L27.1628 9.17602V22.3923C27.1628 23.5849 28.3067 24.5342 29.6941 24.5342H31.4709L31.5195 0.0244141H29.2073C28.2824 0.0244141 27.5036 0.438185 27.0898 1.09535Z" fill="#FFD06B"/>
<path d="M63.5262 1.4361V12.7052C63.5262 15.7963 61.7251 18.571 58.8287 19.9827C57.9525 20.3965 57.417 21.2727 57.417 22.2219V24.8749L58.8043 24.4611C64.2564 22.8304 67.8829 18.0355 67.8099 12.5348V0.0244141H64.9622C64.1833 0.0244141 63.5262 0.657238 63.5262 1.4361Z" fill="#FFD06B"/>
<path d="M51.0886 19.9827C48.1923 18.5953 46.3912 15.7963 46.3912 12.7052V1.4361C46.3912 0.657238 45.7583 0.0244141 44.9551 0.0244141H42.1074V0.657239C42.1074 11.7803 42.1074 12.1941 42.1074 12.3888V12.7052C42.1074 18.1329 45.734 22.8547 51.113 24.4611L52.5003 24.8749V22.2219C52.5003 21.2483 51.9649 20.3965 51.0886 19.9827Z" fill="#FFD06B"/>
<path d="M86.0398 11.8533L85.7964 11.3909C84.9932 9.88186 83.4598 7.03415 80.5391 1.55779C80.028 0.608559 79.0544 0.0244141 77.9591 0.0244141H74.8193L84.8958 18.9118L86.6483 15.6259C87.0864 14.7984 87.0864 13.8248 86.6239 12.9973C86.5752 12.8513 86.3075 12.3401 86.0398 11.8533Z" fill="#FFD06B"/>
<path d="M102.226 0.0243371C101.13 0.0243371 100.157 0.608482 99.6458 1.55772C96.3843 7.6669 92.1249 15.6745 87.8169 23.7309L87.3301 24.6558H91.054C91.7842 24.6558 92.4413 24.2663 92.7578 23.6335V23.6092C92.8308 23.4631 93.0498 23.0494 93.853 21.5403C95.1917 19.0334 98.1854 13.4353 104.854 0.924896L105.341 0H102.226V0.0243371Z" fill="#FFD06B"/>
<path d="M79.3953 30.9354C79.3953 30.5947 79.1763 30.2539 78.6651 30.2539H77.4238V31.6169H78.6651C79.1763 31.6169 79.3953 31.2762 79.3953 30.9354Z" fill="#FFD06B"/>
<path d="M40.9143 30.2539H40.0381V33.0043H40.9143C41.8879 33.0043 42.2773 32.2984 42.253 31.5926C42.253 30.9354 41.8635 30.2539 40.9143 30.2539Z" fill="#FFD06B"/>
<path d="M23.658 30.9354C23.658 30.5947 23.439 30.2539 22.9278 30.2539H21.6865V31.6169H22.9278C23.439 31.6169 23.658 31.2762 23.658 30.9354Z" fill="#FFD06B"/>
<path d="M32.7117 30.9354C32.7117 30.5947 32.4927 30.2539 31.9815 30.2539H30.7402V31.6169H31.9815C32.4927 31.6169 32.7117 31.2762 32.7117 30.9354Z" fill="#FFD06B"/>
<path d="M65.5943 30.1323C64.5721 30.1323 64.1583 30.9355 64.1827 31.6657C64.207 32.3715 64.5721 33.1261 65.5943 33.1261C66.6166 33.1261 66.9817 32.3715 67.006 31.6657C67.006 30.9599 66.6166 30.1323 65.5943 30.1323Z" fill="#FFD06B"/>
<path d="M95.2891 32.2254H96.8711L96.0679 30.3999L95.2891 32.2254Z" fill="#FFD06B"/>
<path d="M0 28.2822V34.9999H105.341V28.2822H0ZM5.67107 29.5235L3.96732 32.0061V33.7829H3.16412V32.0061L1.50904 29.5235V29.4992H2.48262L3.57789 31.276L4.72184 29.4992H5.69541V29.5235H5.67107ZM9.88178 33.8803C8.37274 33.8803 7.6669 32.785 7.6669 31.6654C7.6669 30.5458 8.39708 29.4018 9.88178 29.4018C11.3665 29.4018 12.0967 30.5458 12.0723 31.6654C12.0723 32.7607 11.3908 33.8803 9.88178 33.8803ZM18.2545 31.9575C18.2545 33.2231 17.4757 33.8803 16.4047 33.8803C15.3825 33.8803 14.5063 33.2475 14.5063 31.9575V29.4992H15.3095V31.9575C15.3095 32.7363 15.7476 33.1501 16.4291 33.1501C17.1106 33.1501 17.4757 32.712 17.4757 31.9575V29.4992H18.2789V31.9575H18.2545ZM24.6801 33.7829H23.7309L22.4896 32.3469H21.7107V33.7829H20.9075V29.4992C21.589 29.4992 22.2705 29.4992 22.952 29.4992C23.9743 29.4992 24.4854 30.1807 24.4854 30.9109C24.4854 31.495 24.2177 32.1035 23.3901 32.2495L24.6801 33.7099V33.7829ZM33.7344 33.7829H32.7608L31.5195 32.3469H30.7406V33.7829H29.9374V29.4992C30.6189 29.4992 31.3004 29.4992 31.9819 29.4992C33.0042 29.4992 33.5153 30.1807 33.5153 30.9109C33.5153 31.495 33.2476 32.1035 32.42 32.2495L33.71 33.7099V33.7829H33.7344ZM36.7038 33.7829H35.9006V29.4992H36.7038V33.7829ZM40.9145 33.7829C40.379 33.7829 39.7462 33.7829 39.2351 33.7829V29.4992C39.7705 29.4992 40.4033 29.4992 40.9145 29.4992C42.3748 29.4992 43.032 30.5458 43.0563 31.6167C43.0807 32.6877 42.4235 33.7829 40.9145 33.7829ZM48.63 30.2781H46.2204V31.276H48.5327V32.0305H46.2204V33.0041H48.63V33.8073H45.4173C45.4173 32.3712 45.4173 30.9596 45.4173 29.5235H48.63V30.2781ZM51.0153 33.3935C51.0153 32.8093 51.8915 32.8093 51.8915 33.3935C51.8915 33.9776 51.0153 33.9776 51.0153 33.3935ZM61.4082 29.5235L59.7045 32.0061V33.7829H58.9013V32.0061L57.2462 29.5235V29.4992H58.1954L59.2907 31.276L60.4346 29.4992H61.4082V29.5235ZM65.5946 33.8803C64.0855 33.8803 63.3797 32.785 63.3797 31.6654C63.3797 30.5458 64.1099 29.4018 65.5946 29.4018C67.0793 29.4018 67.8095 30.5458 67.7851 31.6654C67.7851 32.7607 67.1036 33.8803 65.5946 33.8803ZM73.9917 31.9575C73.9917 33.2231 73.2128 33.8803 72.1419 33.8803C71.1196 33.8803 70.2434 33.2475 70.2434 31.9575V29.4992H71.0466V31.9575C71.0466 32.7363 71.4847 33.1501 72.1662 33.1501C72.8477 33.1501 73.2128 32.712 73.2128 31.9575V29.4992H74.016V31.9575H73.9917ZM80.4173 33.7829H79.468L78.2267 32.3469H77.4478V33.7829H76.6446V29.4992C77.3261 29.4992 78.0077 29.4992 78.6892 29.4992C79.7114 29.4992 80.2225 30.1807 80.2225 30.9109C80.2225 31.495 79.9548 32.1035 79.1273 32.2495L80.4173 33.7099V33.7829ZM90.2747 33.7829H89.5932L89.0577 32.4443L88.5953 31.0813L88.1572 32.4443L87.646 33.7829H86.9645L85.3825 29.4992H86.283L87.3053 32.5903L88.3519 29.4992H88.8873L89.9583 32.5903L90.9319 29.4992H91.8324L90.2747 33.7829ZM97.5522 33.7829L97.1871 32.9797H94.9479L94.5828 33.7829H93.7066L95.6293 29.4992H96.5056L98.4284 33.7829H97.5522ZM103.856 29.5235L102.152 32.0061V33.7829H101.349V32.0061L99.694 29.5235V29.4992H100.643L101.739 31.276L102.882 29.4992H103.856V29.5235Z" fill="#FFD06B"/>
<path d="M9.88144 30.1323C8.85919 30.1323 8.44542 30.9355 8.46976 31.6657C8.4941 32.3715 8.85919 33.1261 9.88144 33.1261C10.9037 33.1261 11.2688 32.3715 11.2931 31.6657C11.2931 30.9599 10.8794 30.1323 9.88144 30.1323Z" fill="#FFD06B"/>
</svg>
