<svg width="32" height="30" viewBox="0 0 32 30" fill="none" xmlns="http://www.w3.org/2000/svg">
<path d="M19.4807 7.1424C20.8737 6.51247 22.5849 6.75239 23.7356 7.86199C24.8863 8.9716 25.1351 10.6216 24.4818 11.9649C25.9288 12.4694 26.9628 13.8058 26.9628 15.375C26.9628 16.9442 25.9288 18.2806 24.4818 18.7851C25.1351 20.1284 24.8863 21.7784 23.7356 22.888C22.5849 23.9976 20.8737 24.2375 19.4807 23.6076C18.9575 25.0029 17.5716 26 15.9443 26C14.317 26 12.9311 25.0029 12.4079 23.6076C11.0149 24.2375 9.30373 23.9976 8.15303 22.888C7.00233 21.7784 6.75353 20.1284 7.40679 18.7851C5.95982 18.2806 4.92578 16.9442 4.92578 15.375C4.92578 13.8058 5.95982 12.4694 7.40679 11.9649C6.75353 10.6216 7.00233 8.9716 8.15303 7.86199C9.30373 6.75239 11.0149 6.51247 12.4079 7.1424C12.9311 5.74711 14.317 4.75 15.9443 4.75C17.5716 4.75 18.9575 5.74711 19.4807 7.1424Z" fill="#D0D0D0"/>
<path d="M11.8679 13.6874C11.333 13.1715 11.333 12.3351 11.8679 11.8192C12.4029 11.3033 13.2704 11.3033 13.8054 11.8192C14.3403 12.3351 14.3403 13.1715 13.8054 13.6874C13.2704 14.2033 12.4029 14.2033 11.8679 13.6874Z" fill="#D0D0D0"/>
<path d="M17.2927 18.9184C16.7577 18.4025 16.7577 17.5661 17.2927 17.0502C17.8277 16.5343 18.6951 16.5343 19.2301 17.0502C19.7651 17.5661 19.7651 18.4025 19.2301 18.9184C18.6951 19.4343 17.8277 19.4343 17.2927 18.9184Z" fill="#D0D0D0"/>
<path d="M19.7144 11.1654L11.1899 19.3855M23.7356 7.86199C22.5849 6.75239 20.8737 6.51247 19.4807 7.1424C18.9575 5.74711 17.5716 4.75 15.9443 4.75C14.317 4.75 12.9311 5.74711 12.4079 7.1424C11.0149 6.51247 9.30373 6.75239 8.15303 7.86199C7.00233 8.9716 6.75353 10.6216 7.40679 11.9649C5.95982 12.4694 4.92578 13.8058 4.92578 15.375C4.92578 16.9442 5.95982 18.2806 7.40679 18.7851C6.75353 20.1284 7.00233 21.7784 8.15303 22.888C9.30373 23.9976 11.0149 24.2375 12.4079 23.6076C12.9311 25.0029 14.317 26 15.9443 26C17.5716 26 18.9575 25.0029 19.4807 23.6076C20.8737 24.2375 22.5849 23.9976 23.7356 22.888C24.8863 21.7784 25.1351 20.1284 24.4818 18.7851C25.9288 18.2806 26.9628 16.9442 26.9628 15.375C26.9628 13.8058 25.9288 12.4694 24.4818 11.9649C25.1351 10.6216 24.8863 8.9716 23.7356 7.86199ZM13.8054 13.6874C13.2704 14.2033 12.4029 14.2033 11.8679 13.6874C11.333 13.1715 11.333 12.3351 11.8679 11.8192C12.4029 11.3033 13.2704 11.3033 13.8054 11.8192C14.3403 12.3351 14.3403 13.1715 13.8054 13.6874ZM19.2301 18.9184C18.6951 19.4343 17.8277 19.4343 17.2927 18.9184C16.7577 18.4025 16.7577 17.5661 17.2927 17.0502C17.8277 16.5343 18.6951 16.5343 19.2301 17.0502C19.7651 17.5661 19.7651 18.4025 19.2301 18.9184Z" stroke="#35383F" stroke-linecap="round" stroke-linejoin="round"/>
</svg>
