<svg width="16" height="20" viewBox="0 0 16 20" fill="none" xmlns="http://www.w3.org/2000/svg">
<path d="M13.9998 18.7624H1.99981C1.33706 18.7624 0.799805 18.2252 0.799805 17.5624C0.799805 15.5775 2.03125 13.8009 3.8899 13.1043L4.25892 12.966C6.67092 12.062 9.32869 12.062 11.7407 12.966L12.1097 13.1043C13.9684 13.8009 15.1998 15.5775 15.1998 17.5624C15.1998 18.2252 14.6625 18.7624 13.9998 18.7624Z" fill="#D0D0D0"/>
<path d="M6.17024 9.42263C7.31862 10.0125 8.68098 10.0125 9.82937 9.42263C10.8981 8.87363 11.6639 7.8737 11.9153 6.69878L11.9824 6.3852C12.2395 5.18371 11.9649 3.92973 11.2291 2.94565L11.1214 2.80155C10.3856 1.81734 9.22867 1.23779 7.9998 1.23779C6.77094 1.23779 5.61404 1.81734 4.87821 2.80155L4.77048 2.94565C4.03475 3.92973 3.76014 5.18371 4.01723 6.3852L4.08433 6.69878C4.33574 7.8737 5.10148 8.87363 6.17024 9.42263Z" fill="#D0D0D0"/>
<path d="M13.9998 18.7624H1.99981C1.33706 18.7624 0.799805 18.2252 0.799805 17.5624C0.799805 15.5775 2.03125 13.8009 3.8899 13.1043L4.25892 12.966C6.67092 12.062 9.32869 12.062 11.7407 12.966L12.1097 13.1043C13.9684 13.8009 15.1998 15.5775 15.1998 17.5624C15.1998 18.2252 14.6625 18.7624 13.9998 18.7624Z" stroke="#D0D0D0" stroke-linecap="round" stroke-linejoin="round"/>
<path d="M6.17024 9.42263C7.31862 10.0125 8.68098 10.0125 9.82937 9.42263C10.8981 8.87363 11.6639 7.8737 11.9153 6.69878L11.9824 6.3852C12.2395 5.18371 11.9649 3.92973 11.2291 2.94565L11.1214 2.80155C10.3856 1.81734 9.22867 1.23779 7.9998 1.23779C6.77094 1.23779 5.61404 1.81734 4.87821 2.80155L4.77048 2.94565C4.03475 3.92973 3.76014 5.18371 4.01723 6.3852L4.08433 6.69878C4.33574 7.8737 5.10148 8.87363 6.17024 9.42263Z" stroke="#D0D0D0" stroke-linecap="round" stroke-linejoin="round"/>
</svg>
