<svg width="19" height="19" viewBox="0 0 19 19" fill="none" xmlns="http://www.w3.org/2000/svg">
<path d="M16.0358 17.3244L12.2172 13.5048C11.866 13.1536 11.8661 12.5841 12.2173 12.2328C12.5687 11.8815 13.1383 11.8815 13.4895 12.2329L17.3081 16.0525C17.6593 16.4038 17.6592 16.9732 17.308 17.3245C16.9567 17.6758 16.3871 17.6758 16.0358 17.3244Z" fill="#C2CCDE" fill-opacity="0.25"/>
<path d="M1.67878 5.72044C2.2073 3.74797 3.74797 2.2073 5.72044 1.67878C7.6929 1.15026 9.7975 1.71418 11.2414 3.15813C12.6854 4.60207 13.2493 6.70667 12.7208 8.67913C12.1923 10.6516 10.6516 12.1923 8.67913 12.7208C6.70667 13.2493 4.60207 12.6854 3.15813 11.2414C1.71418 9.7975 1.15026 7.6929 1.67878 5.72044Z" fill="#C2CCDE" fill-opacity="0.25"/>
<path d="M11.2333 11.2493L12.2171 12.2331M12.2172 13.5048L16.0358 17.3244C16.3871 17.6758 16.9567 17.6758 17.308 17.3245C17.6592 16.9732 17.6593 16.4038 17.3081 16.0525L13.4895 12.2329C13.1383 11.8815 12.5687 11.8815 12.2173 12.2328C11.8661 12.5841 11.866 13.1536 12.2172 13.5048ZM3.15813 11.2414C1.71418 9.7975 1.15026 7.6929 1.67878 5.72044C2.2073 3.74797 3.74797 2.2073 5.72044 1.67878C7.6929 1.15026 9.7975 1.71418 11.2414 3.15813C12.6854 4.60207 13.2493 6.70667 12.7208 8.67913C12.1923 10.6516 10.6516 12.1923 8.67913 12.7208C6.70667 13.2493 4.60207 12.6854 3.15813 11.2414Z" stroke="#414141" stroke-linecap="round" stroke-linejoin="round"/>
</svg>
