<svg width="14" height="15" viewBox="0 0 14 15" fill="none" xmlns="http://www.w3.org/2000/svg">
<path d="M2 0.5C0.896875 0.5 0 1.39688 0 2.5V12.5C0 13.6031 0.896875 14.5 2 14.5H12C13.1031 14.5 14 13.6031 14 12.5V2.5C14 1.39688 13.1031 0.5 12 0.5H2ZM11.2844 3.125L8.04062 6.83125L11.8562 11.875H8.86875L6.53125 8.81563L3.85313 11.875H2.36875L5.8375 7.90938L2.17812 3.125H5.24062L7.35625 5.92188L9.8 3.125H11.2844ZM10.1031 10.9875L4.79375 3.96562H3.90937L9.27812 10.9875H10.1H10.1031Z" fill="#FFD06B"/>
</svg>
