<svg width="44" height="38" viewBox="0 0 44 38" fill="none" xmlns="http://www.w3.org/2000/svg">
<path d="M22.9512 9.43731L23.0088 9.45449L23.0113 9.45161C23.2837 9.50087 23.5539 9.33777 23.6339 9.06762C24.3632 6.61712 26.6608 4.90522 29.2207 4.90522C29.5237 4.90522 29.7695 4.65942 29.7695 4.35637C29.7695 4.0533 29.5237 3.80751 29.2207 3.80751C26.0746 3.80751 23.4308 5.90218 22.582 8.75477C22.4953 9.04536 22.6609 9.3507 22.9512 9.43731Z" fill="#FFD06B" stroke="#FFD06B" stroke-width="0.186742"/>
<path d="M35.5968 26.675H32.864C32.6125 26.675 32.4085 26.471 32.4085 26.2195C32.4085 25.9681 32.6125 25.7641 32.864 25.7641H35.5968C39.3639 25.7641 42.429 22.699 42.429 18.9318C42.429 15.1647 39.3639 12.0996 35.5968 12.0996H35.5311C35.399 12.0996 35.2734 12.0424 35.1869 11.9425C35.1003 11.8426 35.0613 11.7102 35.0802 11.5794C35.1208 11.2957 35.1413 11.0107 35.1413 10.7332C35.1413 7.46836 32.4849 4.81188 29.22 4.81188C27.9499 4.81188 26.7386 5.2088 25.717 5.96001C25.4925 6.12496 25.1737 6.05176 25.0439 5.80482C22.1506 0.295462 14.5937 -0.444388 10.6758 4.34827C9.02538 6.36734 8.3769 8.99384 8.89653 11.5537C8.9538 11.8364 8.73744 12.1 8.45016 12.1H8.26764C4.50051 12.1 1.43542 15.1651 1.43542 18.9322C1.43542 22.6993 4.50051 25.7644 8.26764 25.7644H11.0005C11.252 25.7644 11.456 25.9684 11.456 26.2199C11.456 26.4714 11.252 26.6754 11.0005 26.6754H8.26764C3.99812 26.6754 0.524414 23.2017 0.524414 18.9321C0.524414 14.7824 3.80581 11.3845 7.91009 11.1971C7.52455 8.54127 8.26179 5.86238 9.97047 3.77176C14.1651 -1.35988 22.2039 -0.784688 25.602 4.93747C26.6861 4.25782 27.9266 3.90128 29.2199 3.90128C33.1754 3.90128 36.3098 7.26796 36.0355 11.2013C40.102 11.4294 43.3398 14.8094 43.3398 18.9318C43.3398 23.2017 39.8661 26.675 35.5966 26.675L35.5968 26.675Z" fill="#FFD06B"/>
<path d="M10.391 25.9624C10.391 32.2929 15.5411 37.4429 21.8716 37.4429C28.2021 37.4429 33.3521 32.2928 33.3521 25.9624C33.3521 19.6319 28.2021 14.4818 21.8716 14.4818C15.541 14.4818 10.391 19.6319 10.391 25.9624ZM11.4889 25.9624C11.4889 20.2376 16.1467 15.5797 21.8716 15.5797C27.5964 15.5797 32.2542 20.2375 32.2542 25.9624C32.2542 31.6872 27.5964 36.345 21.8716 36.345C16.1467 36.345 11.4889 31.6873 11.4889 25.9624Z" fill="#FFD06B" stroke="#FFD06B" stroke-width="0.186742"/>
<path d="M21.6527 30.5466C21.6527 30.7823 21.8439 30.9734 22.0796 30.9734C22.3152 30.9734 22.5064 30.7825 22.5064 30.5466V21.8764C22.5064 21.6407 22.3152 21.4496 22.0796 21.4496C21.8439 21.4496 21.6527 21.6408 21.6527 21.8764V30.5466Z" fill="#FFD06B" stroke="#FFD06B" stroke-width="0.186742"/>
<path d="M22.0793 22.4811L19.7135 24.8469C19.7135 24.8469 19.7135 24.8469 19.7135 24.847L19.7135 24.847L22.0793 22.4811ZM22.0793 22.4811L24.4452 24.847C24.5285 24.9302 24.638 24.972 24.747 24.972L22.0793 22.4811ZM22.3812 21.5756C22.2144 21.4089 21.944 21.4088 21.7774 21.5757L25.0489 24.847C25.0489 24.8469 25.0489 24.8469 25.049 24.8469C25.2156 24.6801 25.2156 24.41 25.0489 24.2433L22.3812 21.5756Z" fill="#FFD06B" stroke="#FFD06B" stroke-width="0.186742"/>
</svg>
