<svg width="30" height="27" viewBox="0 0 30 27" fill="none" xmlns="http://www.w3.org/2000/svg">
<path d="M25 5.76221V4.76221C25 3.10535 23.6569 1.76221 22 1.76221H4C2.34315 1.76221 1 3.10535 1 4.76221V22.7622C1 24.4191 2.34315 25.7622 4 25.7622H26C27.6569 25.7622 29 24.4191 29 22.7622V8.76221C29 7.10535 27.6569 5.76221 26 5.76221H25ZM25 5.76221H6.25M23 17.2622C21.8954 17.2622 21 16.3668 21 15.2622C21 14.1576 21.8954 13.2622 23 13.2622C24.1046 13.2622 25 14.1576 25 15.2622C25 16.3668 24.1046 17.2622 23 17.2622Z" stroke="#35383F" stroke-width="2" stroke-linecap="round" stroke-linejoin="round"/>
</svg>
